<svg width="290" height="290" viewBox="0 0 290 290" fill="none" xmlns="http://www.w3.org/2000/svg">
<path fill-rule="evenodd" clip-rule="evenodd" d="M120.53 101.937H114.21L114.2 101.917L116.35 85H153.53C161.51 85.4199 166.34 87.3196 168.07 90.6591C169.5 93.4586 170.22 96.4381 170.22 99.5976C170.22 100.197 170.22 100.787 170.16 101.387C169.86 105.197 167.01 110.026 161.64 115.915H162.83C170.4 115.915 174.69 118.894 175.58 124.853V150.819C175.16 155.458 173.61 159.038 171.05 161.597C168.43 164.157 165.28 165.886 161.52 166.776C158.48 167.486 155.44 167.846 152.34 167.846C146.5 167.846 140.48 166.596 134.35 164.037L140.3 149.089C145.84 150.819 150.01 151.709 152.81 151.709H153.17C154.42 151.709 155.43 151.479 156.09 151.059C157.82 149.929 158.71 144.87 158.71 135.931C158.71 134.345 158.66 132.708 158.605 130.936C158.6 130.776 158.595 130.615 158.59 130.452L136.07 130.572V145.23C136.07 155.308 127.97 166.076 117.54 166.076C116.52 166.076 115.51 166.016 114.5 165.896V150.829H114.56C117.72 150.829 119.15 148.389 119.15 141.421V131.122H114.39L114.45 115.935L120.53 116.055V101.937ZM136.08 101.937V115.275C136.08 115.275 151.21 115.275 151.21 103.127C151.21 102.707 151.21 102.357 151.15 101.937H136.08Z" fill="#432C99"/>
<path d="M248.2 190.662L245.14 190.672L250 203.71L246.24 205L241.25 191.662L235.67 204.88L231.86 203.72L237.36 190.622L233.35 190.602L233.66 186.463H238.97L240.09 183.784L243.58 185.103L243.16 186.463H248.79L248.2 190.662Z" fill="#432C99"/>
<path d="M131.11 198.741L132.99 198.731L133.4 195.332L130.99 195.302L131.01 185.163H126.79L126.76 195.302L125.69 195.312L125.32 198.771H126.7V200.041H125.81L125.17 204.42L138.24 204.45L138.68 199.991L131.11 200.001V198.741Z" fill="#432C99"/>
<path d="M149.93 202.3L152.12 204.66L156.13 200.631L153.96 198.251L149.93 202.3Z" fill="#432C99"/>
<path fill-rule="evenodd" clip-rule="evenodd" d="M94.0698 192.572H94.3498L94.3598 192.552C96.1698 192.552 97.1898 193.262 97.3998 194.682V200.871C97.2998 201.981 96.9298 202.83 96.3198 203.44C95.6998 204.05 94.9498 204.46 94.0498 204.68C93.3298 204.85 92.5998 204.93 91.8698 204.93C90.4798 204.93 89.0498 204.63 87.5898 204.02L88.9998 200.461C90.3198 200.871 91.3098 201.081 91.9798 201.081H92.0598C92.3598 201.081 92.5998 201.031 92.7598 200.931C93.1698 200.661 93.3798 199.451 93.3798 197.321C93.3798 197.129 93.3729 196.931 93.3657 196.724V196.723C93.3579 196.499 93.3498 196.266 93.3498 196.022L87.9898 196.052V199.541C87.5298 202.84 86.0498 204.5 83.5698 204.5C83.3298 204.5 83.0898 204.49 82.8498 204.46V200.881H82.8598C83.6098 200.881 83.9798 200.321 83.9798 199.221C83.9798 199.041 83.9698 198.851 83.9498 198.641V196.182H82.8098L82.8298 192.562L84.2798 192.592V189.233H82.7798L83.2898 185.203H92.1398C94.0398 185.303 95.1898 185.763 95.5998 186.553C95.9398 187.223 96.1098 187.933 96.1098 188.683C96.1098 188.823 96.1098 188.973 96.0998 189.113C96.0198 190.023 95.3398 191.172 94.0698 192.572ZM87.9798 192.422L89.8098 192.022H89.8198C90.9898 191.392 91.5898 190.572 91.5898 189.533C91.5898 189.433 91.5898 189.343 91.5698 189.243H87.9798V192.422Z" fill="#432C99"/>
<path fill-rule="evenodd" clip-rule="evenodd" d="M51.57 192.572H51.29C52.57 191.172 53.25 190.023 53.32 189.113C53.34 188.973 53.34 188.823 53.34 188.683C53.34 187.933 53.17 187.223 52.83 186.553C52.42 185.763 51.27 185.303 49.37 185.203H40.51L40 189.233H41.5V192.592L40.05 192.562V196.182H41.17V198.641C41.19 198.851 41.2 199.041 41.2 199.221C41.2 200.321 40.83 200.881 40.08 200.881H40.06V204.46C40.3 204.49 40.54 204.5 40.78 204.5C43.26 204.5 44.74 202.84 45.19 199.541V196.052L50.55 196.022C50.57 196.491 50.58 196.921 50.58 197.321C50.58 199.451 50.36 200.661 49.96 200.931C49.8 201.031 49.56 201.081 49.26 201.081H49.18C48.52 201.081 47.52 200.871 46.2 200.461L44.78 204.02C46.24 204.63 47.67 204.93 49.06 204.93C49.8 204.93 50.52 204.85 51.25 204.68C52.14 204.46 52.89 204.05 53.52 203.44C54.13 202.83 54.5 201.981 54.6 200.871V194.682C54.38 193.262 53.36 192.552 51.56 192.552L51.57 192.572ZM47.04 192.022L45.21 192.422V189.243H48.8C48.81 189.343 48.81 189.433 48.81 189.533C48.81 190.572 48.21 191.392 47.04 192.022Z" fill="#432C99"/>
<path d="M160.27 190.662L160.85 186.463H155.24L155.65 185.103L152.16 183.784L151.04 186.463H145.73L145.42 190.602L149.43 190.622L143.93 203.72L147.75 204.88L153.32 191.662L158.31 205L162.08 203.71L157.21 190.672L160.27 190.662Z" fill="#432C99"/>
<path d="M240.04 204.66L237.86 202.3L241.89 198.251L244.06 200.631L240.04 204.66Z" fill="#432C99"/>
<path d="M214.91 202.3L217.1 204.66L221.12 200.631L218.95 198.251L214.91 202.3Z" fill="#432C99"/>
<path d="M225.84 186.463L225.26 190.662L222.19 190.672L227.06 203.71L223.3 205L218.31 191.662L212.73 204.88L208.91 203.72L214.42 190.622L210.4 190.602L210.72 186.463H216.02L217.14 183.784L220.64 185.103L220.22 186.463H225.84Z" fill="#432C99"/>
<path d="M172.87 202.3L175.06 204.66L179.07 200.631L176.9 198.251L172.87 202.3Z" fill="#432C99"/>
<path d="M183.8 186.463L183.22 190.662L180.15 190.672L185.02 203.71L181.26 205L176.26 191.662L170.69 204.88L166.87 203.72L172.38 190.622L168.36 190.602L168.68 186.463H173.98L175.1 183.784L178.59 185.103L178.18 186.463H183.8Z" fill="#432C99"/>
<path d="M196.09 198.741L197.97 198.731L198.39 195.332L195.97 195.302L195.99 185.163H191.77L191.75 195.302L190.67 195.312L190.3 198.771H191.69V200.041H190.8L190.16 204.42L203.22 204.45L203.66 199.991L196.09 200.001V198.741Z" fill="#432C99"/>
<path d="M76.7002 185.423V185.413L76.7102 185.423L76.7002 185.423Z" fill="#432C99"/>
<path d="M72.6002 185.183L76.7002 185.423V203.99L72.5902 204.4V201.621L71.8202 204.4C70.9702 204.56 70.3902 204.6 69.6702 204.6C67.6302 204.6 66.1302 204.06 65.1002 203.48C59.7602 200.451 60.0402 193.122 60.6702 185.843L65.1102 185.023C64.4502 192.472 64.2502 198.001 67.2502 199.701C68.4602 200.381 70.4702 200.491 72.6002 199.931V185.183Z" fill="#432C99"/>
<path d="M119.42 185.413V185.423L115.32 185.183V199.931C113.19 200.491 111.18 200.381 109.97 199.701C106.97 198.001 107.17 192.472 107.83 185.023L103.39 185.843C102.76 193.122 102.48 200.451 107.82 203.48C108.85 204.06 110.35 204.6 112.39 204.6C113.11 204.6 113.69 204.56 114.54 204.4L115.31 201.621V204.4L119.42 203.99V185.423L119.43 185.423L119.42 185.413Z" fill="#432C99"/>
</svg>
