<svg xmlns="http://www.w3.org/2000/svg" xmlns:xlink="http://www.w3.org/1999/xlink" width="1080" zoomAndPan="magnify" viewBox="0 0 810 809.999993" height="1080" preserveAspectRatio="xMidYMid meet" version="1.0"><defs><g/></defs><g fill="#000000" fill-opacity="1"><g transform="translate(247.080577, 592.733161)"><g><path d="M 38.859375 0 L 38.859375 -377.90625 L 106.578125 -377.90625 L 106.578125 -234.421875 L 111.71875 -233.453125 C 120.675781 -246.648438 131.671875 -256.832031 144.703125 -264 C 157.742188 -271.164062 173.472656 -274.75 191.890625 -274.75 C 251.367188 -274.75 281.109375 -241.019531 281.109375 -173.5625 L 281.109375 0 L 213.40625 0 L 213.40625 -165 C 213.40625 -183.414062 209.738281 -196.78125 202.40625 -205.09375 C 195.070312 -213.40625 183.660156 -217.5625 168.171875 -217.5625 C 149.273438 -217.5625 134.285156 -211.242188 123.203125 -198.609375 C 112.117188 -185.984375 106.578125 -166.304688 106.578125 -139.578125 L 106.578125 0 Z M 38.859375 0 "/></g></g></g><g fill="#000000" fill-opacity="1"><g transform="translate(283.291177, 649.305875)"><g><path d="M 9.65625 0.46875 C 8.070312 0.46875 6.695312 0.175781 5.53125 -0.40625 C 4.363281 -0.988281 3.460938 -1.84375 2.828125 -2.96875 C 2.203125 -4.101562 1.890625 -5.460938 1.890625 -7.046875 C 1.890625 -8.515625 2.203125 -9.742188 2.828125 -10.734375 C 3.460938 -11.734375 4.4375 -12.550781 5.75 -13.1875 C 7.070312 -13.832031 8.796875 -14.328125 10.921875 -14.671875 C 12.398438 -14.910156 13.523438 -15.171875 14.296875 -15.453125 C 15.066406 -15.734375 15.585938 -16.050781 15.859375 -16.40625 C 16.128906 -16.769531 16.265625 -17.234375 16.265625 -17.796875 C 16.265625 -18.585938 15.984375 -19.191406 15.421875 -19.609375 C 14.867188 -20.023438 13.953125 -20.234375 12.671875 -20.234375 C 11.296875 -20.234375 9.984375 -19.925781 8.734375 -19.3125 C 7.492188 -18.695312 6.414062 -17.890625 5.5 -16.890625 L 5.046875 -16.890625 L 2.453125 -20.828125 C 3.703125 -22.210938 5.234375 -23.296875 7.046875 -24.078125 C 8.859375 -24.859375 10.835938 -25.25 12.984375 -25.25 C 16.265625 -25.25 18.632812 -24.550781 20.09375 -23.15625 C 21.5625 -21.757812 22.296875 -19.785156 22.296875 -17.234375 L 22.296875 -6.46875 C 22.296875 -5.363281 22.785156 -4.8125 23.765625 -4.8125 C 24.140625 -4.8125 24.503906 -4.878906 24.859375 -5.015625 L 25.171875 -4.921875 L 25.625 -0.578125 C 25.28125 -0.359375 24.800781 -0.175781 24.1875 -0.03125 C 23.570312 0.113281 22.898438 0.1875 22.171875 0.1875 C 20.691406 0.1875 19.535156 -0.0976562 18.703125 -0.671875 C 17.867188 -1.242188 17.269531 -2.132812 16.90625 -3.34375 L 16.4375 -3.390625 C 15.226562 -0.816406 12.96875 0.46875 9.65625 0.46875 Z M 11.640625 -4.171875 C 13.078125 -4.171875 14.222656 -4.65625 15.078125 -5.625 C 15.941406 -6.59375 16.375 -7.9375 16.375 -9.65625 L 16.375 -12.171875 L 15.953125 -12.265625 C 15.578125 -11.960938 15.082031 -11.707031 14.46875 -11.5 C 13.863281 -11.300781 12.992188 -11.109375 11.859375 -10.921875 C 10.515625 -10.691406 9.546875 -10.300781 8.953125 -9.75 C 8.359375 -9.207031 8.0625 -8.4375 8.0625 -7.4375 C 8.0625 -6.375 8.375 -5.5625 9 -5 C 9.632812 -4.445312 10.515625 -4.171875 11.640625 -4.171875 Z M 11.640625 -4.171875 "/></g></g></g><g fill="#000000" fill-opacity="1"><g transform="translate(316.127029, 649.305875)"><g><path d="M 3.578125 0 L 3.578125 -24.78125 L 9.546875 -24.78125 L 9.546875 -21.453125 L 10.015625 -21.359375 C 10.828125 -22.691406 11.773438 -23.671875 12.859375 -24.296875 C 13.941406 -24.929688 15.332031 -25.25 17.03125 -25.25 C 18.894531 -25.25 20.394531 -24.875 21.53125 -24.125 C 22.675781 -23.382812 23.507812 -22.304688 24.03125 -20.890625 L 24.5 -20.890625 C 25.269531 -22.367188 26.253906 -23.460938 27.453125 -24.171875 C 28.660156 -24.890625 30.164062 -25.25 31.96875 -25.25 C 37.101562 -25.25 39.671875 -22.390625 39.671875 -16.671875 L 39.671875 0 L 33.4375 0 L 33.4375 -15.875 C 33.4375 -17.332031 33.148438 -18.378906 32.578125 -19.015625 C 32.015625 -19.660156 31.101562 -19.984375 29.84375 -19.984375 C 26.4375 -19.984375 24.734375 -17.703125 24.734375 -13.140625 L 24.734375 0 L 18.515625 0 L 18.515625 -15.875 C 18.515625 -17.332031 18.222656 -18.378906 17.640625 -19.015625 C 17.066406 -19.660156 16.148438 -19.984375 14.890625 -19.984375 C 13.285156 -19.984375 12.035156 -19.445312 11.140625 -18.375 C 10.242188 -17.3125 9.796875 -15.613281 9.796875 -13.28125 L 9.796875 0 Z M 3.578125 0 "/></g></g></g><g fill="#000000" fill-opacity="1"><g transform="translate(365.694856, 649.305875)"><g><path d="M 3.578125 0 L 3.578125 -34.71875 L 9.796875 -34.71875 L 9.796875 -21.546875 L 10.265625 -21.453125 C 11.085938 -22.660156 12.097656 -23.59375 13.296875 -24.25 C 14.492188 -24.914062 15.9375 -25.25 17.625 -25.25 C 23.09375 -25.25 25.828125 -22.148438 25.828125 -15.953125 L 25.828125 0 L 19.609375 0 L 19.609375 -15.15625 C 19.609375 -16.851562 19.269531 -18.082031 18.59375 -18.84375 C 17.925781 -19.601562 16.878906 -19.984375 15.453125 -19.984375 C 13.710938 -19.984375 12.332031 -19.40625 11.3125 -18.25 C 10.300781 -17.09375 9.796875 -15.285156 9.796875 -12.828125 L 9.796875 0 Z M 3.578125 0 "/></g></g></g><g fill="#000000" fill-opacity="1"><g transform="translate(401.427921, 649.305875)"><g><path d="M 9.65625 0.46875 C 8.070312 0.46875 6.695312 0.175781 5.53125 -0.40625 C 4.363281 -0.988281 3.460938 -1.84375 2.828125 -2.96875 C 2.203125 -4.101562 1.890625 -5.460938 1.890625 -7.046875 C 1.890625 -8.515625 2.203125 -9.742188 2.828125 -10.734375 C 3.460938 -11.734375 4.4375 -12.550781 5.75 -13.1875 C 7.070312 -13.832031 8.796875 -14.328125 10.921875 -14.671875 C 12.398438 -14.910156 13.523438 -15.171875 14.296875 -15.453125 C 15.066406 -15.734375 15.585938 -16.050781 15.859375 -16.40625 C 16.128906 -16.769531 16.265625 -17.234375 16.265625 -17.796875 C 16.265625 -18.585938 15.984375 -19.191406 15.421875 -19.609375 C 14.867188 -20.023438 13.953125 -20.234375 12.671875 -20.234375 C 11.296875 -20.234375 9.984375 -19.925781 8.734375 -19.3125 C 7.492188 -18.695312 6.414062 -17.890625 5.5 -16.890625 L 5.046875 -16.890625 L 2.453125 -20.828125 C 3.703125 -22.210938 5.234375 -23.296875 7.046875 -24.078125 C 8.859375 -24.859375 10.835938 -25.25 12.984375 -25.25 C 16.265625 -25.25 18.632812 -24.550781 20.09375 -23.15625 C 21.5625 -21.757812 22.296875 -19.785156 22.296875 -17.234375 L 22.296875 -6.46875 C 22.296875 -5.363281 22.785156 -4.8125 23.765625 -4.8125 C 24.140625 -4.8125 24.503906 -4.878906 24.859375 -5.015625 L 25.171875 -4.921875 L 25.625 -0.578125 C 25.28125 -0.359375 24.800781 -0.175781 24.1875 -0.03125 C 23.570312 0.113281 22.898438 0.1875 22.171875 0.1875 C 20.691406 0.1875 19.535156 -0.0976562 18.703125 -0.671875 C 17.867188 -1.242188 17.269531 -2.132812 16.90625 -3.34375 L 16.4375 -3.390625 C 15.226562 -0.816406 12.96875 0.46875 9.65625 0.46875 Z M 11.640625 -4.171875 C 13.078125 -4.171875 14.222656 -4.65625 15.078125 -5.625 C 15.941406 -6.59375 16.375 -7.9375 16.375 -9.65625 L 16.375 -12.171875 L 15.953125 -12.265625 C 15.578125 -11.960938 15.082031 -11.707031 14.46875 -11.5 C 13.863281 -11.300781 12.992188 -11.109375 11.859375 -10.921875 C 10.515625 -10.691406 9.546875 -10.300781 8.953125 -9.75 C 8.359375 -9.207031 8.0625 -8.4375 8.0625 -7.4375 C 8.0625 -6.375 8.375 -5.5625 9 -5 C 9.632812 -4.445312 10.515625 -4.171875 11.640625 -4.171875 Z M 11.640625 -4.171875 "/></g></g></g><g fill="#000000" fill-opacity="1"><g transform="translate(434.263777, 649.305875)"><g><path d="M 3.578125 0 L 3.578125 -24.78125 L 9.546875 -24.78125 L 9.546875 -21.453125 L 10.015625 -21.359375 C 10.828125 -22.691406 11.773438 -23.671875 12.859375 -24.296875 C 13.941406 -24.929688 15.332031 -25.25 17.03125 -25.25 C 18.894531 -25.25 20.394531 -24.875 21.53125 -24.125 C 22.675781 -23.382812 23.507812 -22.304688 24.03125 -20.890625 L 24.5 -20.890625 C 25.269531 -22.367188 26.253906 -23.460938 27.453125 -24.171875 C 28.660156 -24.890625 30.164062 -25.25 31.96875 -25.25 C 37.101562 -25.25 39.671875 -22.390625 39.671875 -16.671875 L 39.671875 0 L 33.4375 0 L 33.4375 -15.875 C 33.4375 -17.332031 33.148438 -18.378906 32.578125 -19.015625 C 32.015625 -19.660156 31.101562 -19.984375 29.84375 -19.984375 C 26.4375 -19.984375 24.734375 -17.703125 24.734375 -13.140625 L 24.734375 0 L 18.515625 0 L 18.515625 -15.875 C 18.515625 -17.332031 18.222656 -18.378906 17.640625 -19.015625 C 17.066406 -19.660156 16.148438 -19.984375 14.890625 -19.984375 C 13.285156 -19.984375 12.035156 -19.445312 11.140625 -18.375 C 10.242188 -17.3125 9.796875 -15.613281 9.796875 -13.28125 L 9.796875 0 Z M 3.578125 0 "/></g></g></g><g fill="#000000" fill-opacity="1"><g transform="translate(483.831615, 649.305875)"><g><path d="M 3.578125 0 L 3.578125 -24.78125 L 9.546875 -24.78125 L 9.546875 -21.453125 L 10.015625 -21.359375 C 10.828125 -22.691406 11.773438 -23.671875 12.859375 -24.296875 C 13.941406 -24.929688 15.332031 -25.25 17.03125 -25.25 C 18.894531 -25.25 20.394531 -24.875 21.53125 -24.125 C 22.675781 -23.382812 23.507812 -22.304688 24.03125 -20.890625 L 24.5 -20.890625 C 25.269531 -22.367188 26.253906 -23.460938 27.453125 -24.171875 C 28.660156 -24.890625 30.164062 -25.25 31.96875 -25.25 C 37.101562 -25.25 39.671875 -22.390625 39.671875 -16.671875 L 39.671875 0 L 33.4375 0 L 33.4375 -15.875 C 33.4375 -17.332031 33.148438 -18.378906 32.578125 -19.015625 C 32.015625 -19.660156 31.101562 -19.984375 29.84375 -19.984375 C 26.4375 -19.984375 24.734375 -17.703125 24.734375 -13.140625 L 24.734375 0 L 18.515625 0 L 18.515625 -15.875 C 18.515625 -17.332031 18.222656 -18.378906 17.640625 -19.015625 C 17.066406 -19.660156 16.148438 -19.984375 14.890625 -19.984375 C 13.285156 -19.984375 12.035156 -19.445312 11.140625 -18.375 C 10.242188 -17.3125 9.796875 -15.613281 9.796875 -13.28125 L 9.796875 0 Z M 3.578125 0 "/></g></g></g></svg>